<mxfile host="app.diagrams.net" modified="2024-06-19T02:23:10.332Z" agent="Mozilla/5.0 (Macintosh; Intel Mac OS X 10_15_7) AppleWebKit/537.36 (KHTML, like Gecko) Chrome/125.0.0.0 Safari/537.36" etag="Q2Z7H5WWir_x4NYgt4ul" version="24.3.0" type="github">
  <diagram name="ページ1" id="ZJu8mEiRxOxIWYRXOlok">
    <mxGraphModel dx="920" dy="581" grid="1" gridSize="10" guides="1" tooltips="1" connect="1" arrows="1" fold="1" page="1" pageScale="1" pageWidth="827" pageHeight="1169" math="0" shadow="0">
      <root>
        <mxCell id="0" />
        <mxCell id="1" parent="0" />
        <mxCell id="dCsjeSKjz7QpDJbfvHin-18" value="" style="rounded=0;whiteSpace=wrap;html=1;" vertex="1" parent="1">
          <mxGeometry x="600" y="182" width="190" height="300" as="geometry" />
        </mxCell>
        <mxCell id="dCsjeSKjz7QpDJbfvHin-1" value="" style="rounded=0;whiteSpace=wrap;html=1;" vertex="1" parent="1">
          <mxGeometry x="80" y="170" width="190" height="300" as="geometry" />
        </mxCell>
        <mxCell id="dCsjeSKjz7QpDJbfvHin-2" value="" style="whiteSpace=wrap;html=1;aspect=fixed;fillColor=#E95295;" vertex="1" parent="1">
          <mxGeometry x="90" y="190" width="20" height="20" as="geometry" />
        </mxCell>
        <mxCell id="dCsjeSKjz7QpDJbfvHin-47" style="edgeStyle=orthogonalEdgeStyle;rounded=0;orthogonalLoop=1;jettySize=auto;html=1;exitX=1;exitY=0.5;exitDx=0;exitDy=0;entryX=0;entryY=0.75;entryDx=0;entryDy=0;" edge="1" parent="1" source="dCsjeSKjz7QpDJbfvHin-3" target="dCsjeSKjz7QpDJbfvHin-19">
          <mxGeometry relative="1" as="geometry" />
        </mxCell>
        <mxCell id="dCsjeSKjz7QpDJbfvHin-3" value="&lt;span style=&quot;color: rgb(89, 89, 89); font-family: -apple-system, &amp;quot;system-ui&amp;quot;, &amp;quot;Segoe UI&amp;quot;, Roboto, Oxygen-Sans, Ubuntu, Cantarell, &amp;quot;Helvetica Neue&amp;quot;, sans-serif; font-size: 13px; text-align: right; text-wrap: nowrap; background-color: rgb(255, 255, 255);&quot;&gt;1,229,713&lt;/span&gt;" style="text;strokeColor=none;align=center;fillColor=none;html=1;verticalAlign=middle;whiteSpace=wrap;rounded=0;" vertex="1" parent="1">
          <mxGeometry x="130" y="185" width="60" height="30" as="geometry" />
        </mxCell>
        <mxCell id="dCsjeSKjz7QpDJbfvHin-4" value="" style="whiteSpace=wrap;html=1;aspect=fixed;fillColor=#E95295;" vertex="1" parent="1">
          <mxGeometry x="90" y="230" width="20" height="20" as="geometry" />
        </mxCell>
        <mxCell id="dCsjeSKjz7QpDJbfvHin-5" value="" style="whiteSpace=wrap;html=1;aspect=fixed;fillColor=#E95295;" vertex="1" parent="1">
          <mxGeometry x="90" y="270" width="20" height="20" as="geometry" />
        </mxCell>
        <mxCell id="dCsjeSKjz7QpDJbfvHin-6" value="" style="whiteSpace=wrap;html=1;aspect=fixed;fillColor=#5bc0de;" vertex="1" parent="1">
          <mxGeometry x="90" y="310" width="20" height="20" as="geometry" />
        </mxCell>
        <mxCell id="dCsjeSKjz7QpDJbfvHin-7" value="" style="whiteSpace=wrap;html=1;aspect=fixed;fillColor=#777777;" vertex="1" parent="1">
          <mxGeometry x="90" y="350" width="20" height="20" as="geometry" />
        </mxCell>
        <mxCell id="dCsjeSKjz7QpDJbfvHin-43" style="edgeStyle=orthogonalEdgeStyle;rounded=0;orthogonalLoop=1;jettySize=auto;html=1;exitX=1;exitY=0.5;exitDx=0;exitDy=0;entryX=0;entryY=0.75;entryDx=0;entryDy=0;" edge="1" parent="1" source="dCsjeSKjz7QpDJbfvHin-8" target="dCsjeSKjz7QpDJbfvHin-41">
          <mxGeometry relative="1" as="geometry">
            <Array as="points">
              <mxPoint x="410" y="240" />
              <mxPoint x="410" y="462" />
            </Array>
          </mxGeometry>
        </mxCell>
        <mxCell id="dCsjeSKjz7QpDJbfvHin-8" value="&lt;span style=&quot;color: rgb(89, 89, 89); font-family: -apple-system, &amp;quot;system-ui&amp;quot;, &amp;quot;Segoe UI&amp;quot;, Roboto, Oxygen-Sans, Ubuntu, Cantarell, &amp;quot;Helvetica Neue&amp;quot;, sans-serif; font-size: 13px; text-align: right; text-wrap: nowrap; background-color: rgb(255, 255, 255);&quot;&gt;1,229,714&lt;/span&gt;" style="text;strokeColor=none;align=center;fillColor=none;html=1;verticalAlign=middle;whiteSpace=wrap;rounded=0;" vertex="1" parent="1">
          <mxGeometry x="130" y="225" width="60" height="30" as="geometry" />
        </mxCell>
        <mxCell id="dCsjeSKjz7QpDJbfvHin-9" value="&lt;span style=&quot;color: rgb(89, 89, 89); font-family: -apple-system, &amp;quot;system-ui&amp;quot;, &amp;quot;Segoe UI&amp;quot;, Roboto, Oxygen-Sans, Ubuntu, Cantarell, &amp;quot;Helvetica Neue&amp;quot;, sans-serif; font-size: 13px; text-align: right; text-wrap: nowrap; background-color: rgb(255, 255, 255);&quot;&gt;1,229,715&lt;/span&gt;" style="text;strokeColor=none;align=center;fillColor=none;html=1;verticalAlign=middle;whiteSpace=wrap;rounded=0;" vertex="1" parent="1">
          <mxGeometry x="130" y="265" width="60" height="30" as="geometry" />
        </mxCell>
        <mxCell id="dCsjeSKjz7QpDJbfvHin-50" style="edgeStyle=orthogonalEdgeStyle;rounded=0;orthogonalLoop=1;jettySize=auto;html=1;exitX=1;exitY=0.5;exitDx=0;exitDy=0;entryX=0;entryY=0.5;entryDx=0;entryDy=0;" edge="1" parent="1" source="dCsjeSKjz7QpDJbfvHin-10" target="dCsjeSKjz7QpDJbfvHin-36">
          <mxGeometry relative="1" as="geometry">
            <Array as="points">
              <mxPoint x="480" y="320" />
              <mxPoint x="480" y="422" />
            </Array>
          </mxGeometry>
        </mxCell>
        <mxCell id="dCsjeSKjz7QpDJbfvHin-10" value="&lt;span style=&quot;color: rgb(89, 89, 89); font-family: -apple-system, &amp;quot;system-ui&amp;quot;, &amp;quot;Segoe UI&amp;quot;, Roboto, Oxygen-Sans, Ubuntu, Cantarell, &amp;quot;Helvetica Neue&amp;quot;, sans-serif; font-size: 13px; text-align: right; text-wrap: nowrap; background-color: rgb(255, 255, 255);&quot;&gt;1,108,400&lt;/span&gt;" style="text;strokeColor=none;align=center;fillColor=none;html=1;verticalAlign=middle;whiteSpace=wrap;rounded=0;" vertex="1" parent="1">
          <mxGeometry x="130" y="305" width="60" height="30" as="geometry" />
        </mxCell>
        <mxCell id="dCsjeSKjz7QpDJbfvHin-11" value="&lt;span style=&quot;color: rgb(89, 89, 89); font-family: -apple-system, &amp;quot;system-ui&amp;quot;, &amp;quot;Segoe UI&amp;quot;, Roboto, Oxygen-Sans, Ubuntu, Cantarell, &amp;quot;Helvetica Neue&amp;quot;, sans-serif; font-size: 13px; text-align: right; text-wrap: nowrap; background-color: rgb(255, 255, 255);&quot;&gt;1,108,401&lt;/span&gt;" style="text;strokeColor=none;align=center;fillColor=none;html=1;verticalAlign=middle;whiteSpace=wrap;rounded=0;" vertex="1" parent="1">
          <mxGeometry x="130" y="345" width="60" height="30" as="geometry" />
        </mxCell>
        <mxCell id="dCsjeSKjz7QpDJbfvHin-48" style="edgeStyle=orthogonalEdgeStyle;rounded=0;orthogonalLoop=1;jettySize=auto;html=1;exitX=1;exitY=0.5;exitDx=0;exitDy=0;entryX=0;entryY=0.5;entryDx=0;entryDy=0;" edge="1" parent="1" source="dCsjeSKjz7QpDJbfvHin-12" target="dCsjeSKjz7QpDJbfvHin-21">
          <mxGeometry relative="1" as="geometry">
            <Array as="points">
              <mxPoint x="440" y="405" />
              <mxPoint x="440" y="252" />
            </Array>
          </mxGeometry>
        </mxCell>
        <mxCell id="dCsjeSKjz7QpDJbfvHin-12" value="&lt;span style=&quot;color: rgb(89, 89, 89); font-family: -apple-system, &amp;quot;system-ui&amp;quot;, &amp;quot;Segoe UI&amp;quot;, Roboto, Oxygen-Sans, Ubuntu, Cantarell, &amp;quot;Helvetica Neue&amp;quot;, sans-serif; font-size: 13px; text-align: right; text-wrap: nowrap; background-color: rgb(255, 255, 255);&quot;&gt;1,108,404&lt;/span&gt;" style="text;strokeColor=none;align=center;fillColor=none;html=1;verticalAlign=middle;whiteSpace=wrap;rounded=0;" vertex="1" parent="1">
          <mxGeometry x="130" y="390" width="60" height="30" as="geometry" />
        </mxCell>
        <mxCell id="dCsjeSKjz7QpDJbfvHin-13" value="" style="whiteSpace=wrap;html=1;aspect=fixed;fillColor=#f0ad4e;" vertex="1" parent="1">
          <mxGeometry x="90" y="395" width="20" height="20" as="geometry" />
        </mxCell>
        <mxCell id="dCsjeSKjz7QpDJbfvHin-49" style="edgeStyle=orthogonalEdgeStyle;rounded=0;orthogonalLoop=1;jettySize=auto;html=1;exitX=1;exitY=0.5;exitDx=0;exitDy=0;entryX=0;entryY=0.5;entryDx=0;entryDy=0;" edge="1" parent="1" source="dCsjeSKjz7QpDJbfvHin-15" target="dCsjeSKjz7QpDJbfvHin-24">
          <mxGeometry relative="1" as="geometry">
            <Array as="points">
              <mxPoint x="360" y="445" />
              <mxPoint x="360" y="377" />
            </Array>
          </mxGeometry>
        </mxCell>
        <mxCell id="dCsjeSKjz7QpDJbfvHin-15" value="&lt;span style=&quot;color: rgb(89, 89, 89); font-family: -apple-system, &amp;quot;system-ui&amp;quot;, &amp;quot;Segoe UI&amp;quot;, Roboto, Oxygen-Sans, Ubuntu, Cantarell, &amp;quot;Helvetica Neue&amp;quot;, sans-serif; font-size: 13px; text-align: right; text-wrap: nowrap; background-color: rgb(255, 255, 255);&quot;&gt;1,108,407&lt;/span&gt;" style="text;strokeColor=none;align=center;fillColor=none;html=1;verticalAlign=middle;whiteSpace=wrap;rounded=0;" vertex="1" parent="1">
          <mxGeometry x="130" y="430" width="60" height="30" as="geometry" />
        </mxCell>
        <mxCell id="dCsjeSKjz7QpDJbfvHin-16" value="" style="whiteSpace=wrap;html=1;aspect=fixed;fillColor=#d9534f;" vertex="1" parent="1">
          <mxGeometry x="90" y="435" width="20" height="20" as="geometry" />
        </mxCell>
        <mxCell id="dCsjeSKjz7QpDJbfvHin-17" value="OLD" style="text;html=1;align=center;verticalAlign=middle;resizable=0;points=[];autosize=1;strokeColor=none;fillColor=none;" vertex="1" parent="1">
          <mxGeometry x="80" y="128" width="50" height="30" as="geometry" />
        </mxCell>
        <mxCell id="dCsjeSKjz7QpDJbfvHin-19" value="" style="whiteSpace=wrap;html=1;aspect=fixed;fillColor=#5BC0DE;" vertex="1" parent="1">
          <mxGeometry x="610" y="202" width="20" height="20" as="geometry" />
        </mxCell>
        <mxCell id="dCsjeSKjz7QpDJbfvHin-20" value="&lt;span style=&quot;color: rgb(89, 89, 89); font-family: -apple-system, &amp;quot;system-ui&amp;quot;, &amp;quot;Segoe UI&amp;quot;, Roboto, Oxygen-Sans, Ubuntu, Cantarell, &amp;quot;Helvetica Neue&amp;quot;, sans-serif; font-size: 13px; text-align: right; text-wrap: nowrap; background-color: rgb(255, 255, 255);&quot;&gt;1,229,713&lt;/span&gt;" style="text;strokeColor=none;align=center;fillColor=none;html=1;verticalAlign=middle;whiteSpace=wrap;rounded=0;" vertex="1" parent="1">
          <mxGeometry x="650" y="197" width="60" height="30" as="geometry" />
        </mxCell>
        <mxCell id="dCsjeSKjz7QpDJbfvHin-21" value="" style="whiteSpace=wrap;html=1;aspect=fixed;fillColor=#f0ad4e;" vertex="1" parent="1">
          <mxGeometry x="610" y="242" width="20" height="20" as="geometry" />
        </mxCell>
        <mxCell id="dCsjeSKjz7QpDJbfvHin-22" value="" style="whiteSpace=wrap;html=1;aspect=fixed;fillColor=#EFAC4E;" vertex="1" parent="1">
          <mxGeometry x="610" y="282" width="20" height="20" as="geometry" />
        </mxCell>
        <mxCell id="dCsjeSKjz7QpDJbfvHin-24" value="" style="whiteSpace=wrap;html=1;aspect=fixed;fillColor=#E95295;" vertex="1" parent="1">
          <mxGeometry x="610" y="367" width="20" height="20" as="geometry" />
        </mxCell>
        <mxCell id="dCsjeSKjz7QpDJbfvHin-25" value="&lt;span style=&quot;color: rgb(89, 89, 89); font-family: -apple-system, &amp;quot;system-ui&amp;quot;, &amp;quot;Segoe UI&amp;quot;, Roboto, Oxygen-Sans, Ubuntu, Cantarell, &amp;quot;Helvetica Neue&amp;quot;, sans-serif; font-size: 13px; text-align: right; text-wrap: nowrap; background-color: rgb(255, 255, 255);&quot;&gt;1,108,404&lt;/span&gt;" style="text;strokeColor=none;align=center;fillColor=none;html=1;verticalAlign=middle;whiteSpace=wrap;rounded=0;" vertex="1" parent="1">
          <mxGeometry x="650" y="237" width="60" height="30" as="geometry" />
        </mxCell>
        <mxCell id="dCsjeSKjz7QpDJbfvHin-26" value="&lt;span style=&quot;color: rgb(89, 89, 89); font-family: -apple-system, &amp;quot;system-ui&amp;quot;, &amp;quot;Segoe UI&amp;quot;, Roboto, Oxygen-Sans, Ubuntu, Cantarell, &amp;quot;Helvetica Neue&amp;quot;, sans-serif; font-size: 13px; text-align: right; text-wrap: nowrap; background-color: rgb(255, 255, 255);&quot;&gt;1,250,707&lt;/span&gt;" style="text;strokeColor=none;align=center;fillColor=none;html=1;verticalAlign=middle;whiteSpace=wrap;rounded=0;" vertex="1" parent="1">
          <mxGeometry x="650" y="277" width="60" height="30" as="geometry" />
        </mxCell>
        <mxCell id="dCsjeSKjz7QpDJbfvHin-27" value="&lt;span style=&quot;color: rgb(89, 89, 89); font-family: -apple-system, &amp;quot;system-ui&amp;quot;, &amp;quot;Segoe UI&amp;quot;, Roboto, Oxygen-Sans, Ubuntu, Cantarell, &amp;quot;Helvetica Neue&amp;quot;, sans-serif; font-size: 13px; text-align: right; text-wrap: nowrap; background-color: rgb(255, 255, 255);&quot;&gt;1,250,708&lt;/span&gt;" style="text;strokeColor=none;align=center;fillColor=none;html=1;verticalAlign=middle;whiteSpace=wrap;rounded=0;" vertex="1" parent="1">
          <mxGeometry x="650" y="317" width="60" height="30" as="geometry" />
        </mxCell>
        <mxCell id="dCsjeSKjz7QpDJbfvHin-28" value="&lt;span style=&quot;color: rgb(89, 89, 89); font-family: -apple-system, &amp;quot;system-ui&amp;quot;, &amp;quot;Segoe UI&amp;quot;, Roboto, Oxygen-Sans, Ubuntu, Cantarell, &amp;quot;Helvetica Neue&amp;quot;, sans-serif; font-size: 13px; text-align: right; text-wrap: nowrap; background-color: rgb(255, 255, 255);&quot;&gt;1,108,407&lt;/span&gt;" style="text;strokeColor=none;align=center;fillColor=none;html=1;verticalAlign=middle;whiteSpace=wrap;rounded=0;" vertex="1" parent="1">
          <mxGeometry x="650" y="357" width="60" height="30" as="geometry" />
        </mxCell>
        <mxCell id="dCsjeSKjz7QpDJbfvHin-29" value="&lt;span style=&quot;color: rgb(89, 89, 89); font-family: -apple-system, &amp;quot;system-ui&amp;quot;, &amp;quot;Segoe UI&amp;quot;, Roboto, Oxygen-Sans, Ubuntu, Cantarell, &amp;quot;Helvetica Neue&amp;quot;, sans-serif; font-size: 13px; text-align: right; text-wrap: nowrap; background-color: rgb(255, 255, 255);&quot;&gt;1,108,400&lt;/span&gt;" style="text;strokeColor=none;align=center;fillColor=none;html=1;verticalAlign=middle;whiteSpace=wrap;rounded=0;" vertex="1" parent="1">
          <mxGeometry x="650" y="402" width="60" height="30" as="geometry" />
        </mxCell>
        <mxCell id="dCsjeSKjz7QpDJbfvHin-31" value="&lt;span style=&quot;color: rgb(89, 89, 89); font-family: -apple-system, &amp;quot;system-ui&amp;quot;, &amp;quot;Segoe UI&amp;quot;, Roboto, Oxygen-Sans, Ubuntu, Cantarell, &amp;quot;Helvetica Neue&amp;quot;, sans-serif; font-size: 13px; text-align: right; text-wrap: nowrap; background-color: rgb(255, 255, 255);&quot;&gt;1,229,714&lt;/span&gt;" style="text;strokeColor=none;align=center;fillColor=none;html=1;verticalAlign=middle;whiteSpace=wrap;rounded=0;" vertex="1" parent="1">
          <mxGeometry x="650" y="442" width="60" height="30" as="geometry" />
        </mxCell>
        <mxCell id="dCsjeSKjz7QpDJbfvHin-33" value="NEW" style="text;html=1;align=center;verticalAlign=middle;resizable=0;points=[];autosize=1;strokeColor=none;fillColor=none;" vertex="1" parent="1">
          <mxGeometry x="600" y="140" width="50" height="30" as="geometry" />
        </mxCell>
        <mxCell id="dCsjeSKjz7QpDJbfvHin-35" value="" style="whiteSpace=wrap;html=1;aspect=fixed;fillColor=#EFAC4E;" vertex="1" parent="1">
          <mxGeometry x="610" y="322" width="20" height="20" as="geometry" />
        </mxCell>
        <mxCell id="dCsjeSKjz7QpDJbfvHin-36" value="" style="whiteSpace=wrap;html=1;aspect=fixed;fillColor=#E95295;" vertex="1" parent="1">
          <mxGeometry x="610" y="412" width="20" height="20" as="geometry" />
        </mxCell>
        <mxCell id="dCsjeSKjz7QpDJbfvHin-41" value="" style="whiteSpace=wrap;html=1;aspect=fixed;fillColor=#E95295;" vertex="1" parent="1">
          <mxGeometry x="610" y="447" width="20" height="20" as="geometry" />
        </mxCell>
      </root>
    </mxGraphModel>
  </diagram>
</mxfile>
